<svg width="200" height="200" viewBox="0 0 200 200" fill="none" xmlns="http://www.w3.org/2000/svg">
<circle cx="142.5" cy="78.5" r="42.5" fill="#48484A"/>
<path d="M156.719 163.156H43.2812C35.0141 163.156 27.1958 159.731 21.2668 153.512C15.2911 147.245 12 138.933 12 130.109C12 121.285 15.2911 112.974 21.2668 106.706C25.9466 101.798 31.8034 98.63 38.1291 97.5127C38.1264 97.3636 38.125 97.2134 38.125 97.0625C38.125 72.7664 56.6297 53 79.375 53C87.8099 53 95.9159 55.7124 102.817 60.8442C107.675 64.4566 111.708 69.085 114.706 74.446C119.546 71.2393 125.128 69.5234 130.938 69.5234C146.367 69.5234 159.194 81.6502 161.504 97.4502C167.97 98.5077 173.963 101.703 178.734 106.706C184.709 112.974 188 121.285 188 130.109C188 138.934 184.709 147.245 178.734 153.512C172.804 159.731 164.986 163.156 156.719 163.156Z" fill="#F2F2F1"/>
</svg>
