<svg width="200" height="200" viewBox="0 0 200 200" fill="none" xmlns="http://www.w3.org/2000/svg">
<path d="M156.719 155.156H43.2812C35.0141 155.156 27.1958 151.731 21.2668 145.512C15.2911 139.245 12 130.933 12 122.109C12 113.285 15.2911 104.974 21.2668 98.7063C25.9466 93.7978 31.8034 90.63 38.1291 89.5127C38.1264 89.3636 38.125 89.2134 38.125 89.0625C38.125 64.7664 56.6297 45 79.375 45C87.8099 45 95.9159 47.7124 102.817 52.8442C107.675 56.4566 111.708 61.085 114.706 66.446C119.546 63.2393 125.128 61.5234 130.938 61.5234C146.367 61.5234 159.194 73.6502 161.504 89.4502C167.97 90.5077 173.963 93.7027 178.734 98.7063C184.709 104.974 188 113.285 188 122.109C188 130.934 184.709 139.245 178.734 145.512C172.804 151.731 164.986 155.156 156.719 155.156Z" fill="#F2F2F1"/>
</svg>
