<svg width="200" height="200" viewBox="0 0 200 200" fill="none" xmlns="http://www.w3.org/2000/svg">
<path d="M173.65 130H85.3496C78.9144 130 72.8286 127.046 68.2134 121.683C63.5618 116.278 61 109.11 61 101.5C61 93.8902 63.5618 86.7221 68.2134 81.3169C71.8562 77.0837 76.4152 74.3518 81.3391 73.3882C81.337 73.2597 81.3359 73.1301 81.3359 73C81.3359 52.0468 95.7402 35 113.445 35C120.011 35 126.321 37.3392 131.693 41.7649C135.474 44.8803 138.613 48.8719 140.947 53.4952C144.714 50.7298 149.06 49.25 153.582 49.25C165.593 49.25 175.577 59.7082 177.375 73.3344C182.409 74.2464 187.073 77.0017 190.787 81.3169C195.438 86.7221 198 93.8899 198 101.5C198 109.11 195.438 116.278 190.787 121.683C186.171 127.046 180.086 130 173.65 130Z" fill="#48484A"/>
<path d="M146.719 164.156H33.2812C25.0141 164.156 17.1958 160.731 11.2668 154.512C5.29106 148.245 2 139.933 2 131.109C2 122.285 5.29106 113.974 11.2668 107.706C15.9466 102.798 21.8034 99.63 28.1291 98.5127C28.1264 98.3636 28.125 98.2134 28.125 98.0625C28.125 73.7664 46.6297 54 69.375 54C77.8099 54 85.9159 56.7124 92.8167 61.8442C97.6746 65.4566 101.708 70.085 104.706 75.446C109.546 72.2393 115.128 70.5234 120.938 70.5234C136.367 70.5234 149.194 82.6502 151.504 98.4502C157.97 99.5077 163.963 102.703 168.734 107.706C174.709 113.974 178 122.285 178 131.109C178 139.934 174.709 148.245 168.734 154.512C162.804 160.731 154.986 164.156 146.719 164.156Z" fill="#F2F2F1"/>
</svg>
