<svg width="200" height="200" viewBox="0 0 200 200" fill="none" xmlns="http://www.w3.org/2000/svg">
<path d="M173.65 110H85.3496C78.9144 110 72.8286 107.046 68.2134 101.683C63.5618 96.2779 61 89.1098 61 81.5C61 73.8902 63.5618 66.7221 68.2134 61.3169C71.8562 57.0837 76.4152 54.3518 81.3391 53.3882C81.337 53.2597 81.3359 53.1301 81.3359 53C81.3359 32.0468 95.7402 15 113.445 15C120.011 15 126.321 17.3392 131.693 21.7649C135.474 24.8803 138.613 28.8719 140.947 33.4952C144.714 30.7298 149.06 29.25 153.582 29.25C165.593 29.25 175.577 39.7082 177.375 53.3344C182.409 54.2464 187.073 57.0017 190.787 61.3169C195.438 66.7221 198 73.8899 198 81.5C198 89.1101 195.438 96.2779 190.787 101.683C186.171 107.046 180.086 110 173.65 110Z" fill="#48484A"/>
<path d="M146.719 144.156H33.2812C25.0141 144.156 17.1958 140.731 11.2668 134.512C5.29106 128.245 2 119.933 2 111.109C2 102.285 5.29106 93.9738 11.2668 87.7063C15.9466 82.7978 21.8034 79.63 28.1291 78.5127C28.1264 78.3636 28.125 78.2134 28.125 78.0625C28.125 53.7664 46.6297 34 69.375 34C77.8099 34 85.9159 36.7124 92.8167 41.8442C97.6746 45.4566 101.708 50.085 104.706 55.446C109.546 52.2393 115.128 50.5234 120.938 50.5234C136.367 50.5234 149.194 62.6502 151.504 78.4502C157.97 79.5077 163.963 82.7027 168.734 87.7063C174.709 93.9738 178 102.285 178 111.109C178 119.934 174.709 128.245 168.734 134.512C162.804 140.731 154.986 144.156 146.719 144.156Z" fill="#F2F2F1"/>
<line x1="76.1189" y1="137.473" x2="73.4733" y2="144.881" stroke="#48484A" stroke-width="7" stroke-linecap="round"/>
<line x1="68.1189" y1="160.473" x2="65.4733" y2="167.881" stroke="#48484A" stroke-width="7" stroke-linecap="round"/>
<line x1="95.1189" y1="157.473" x2="92.4733" y2="164.881" stroke="#48484A" stroke-width="7" stroke-linecap="round"/>
<line x1="86.1189" y1="178.473" x2="83.4733" y2="185.881" stroke="#48484A" stroke-width="7" stroke-linecap="round"/>
<line x1="112.119" y1="178.473" x2="109.473" y2="185.881" stroke="#48484A" stroke-width="7" stroke-linecap="round"/>
<line x1="122.119" y1="150.473" x2="119.473" y2="157.881" stroke="#48484A" stroke-width="7" stroke-linecap="round"/>
</svg>
