<svg width="200" height="200" viewBox="0 0 200 200" fill="none" xmlns="http://www.w3.org/2000/svg">
<circle cx="142.5" cy="56.5" r="42.5" fill="#48484A"/>
<path d="M156.719 141.156H43.2812C35.0141 141.156 27.1958 137.731 21.2668 131.512C15.2911 125.245 12 116.933 12 108.109C12 99.2855 15.2911 90.9738 21.2668 84.7063C25.9466 79.7978 31.8034 76.63 38.1291 75.5127C38.1264 75.3636 38.125 75.2134 38.125 75.0625C38.125 50.7664 56.6297 31 79.375 31C87.8099 31 95.9159 33.7124 102.817 38.8442C107.675 42.4566 111.708 47.085 114.706 52.446C119.546 49.2393 125.128 47.5234 130.938 47.5234C146.367 47.5234 159.194 59.6502 161.504 75.4502C167.97 76.5077 173.963 79.7027 178.734 84.7063C184.709 90.9738 188 99.2851 188 108.109C188 116.934 184.709 125.245 178.734 131.512C172.804 137.731 164.986 141.156 156.719 141.156Z" fill="#F2F2F1"/>
<line x1="86.1189" y1="135.473" x2="83.4733" y2="142.881" stroke="#48484A" stroke-width="7" stroke-linecap="round"/>
<line x1="78.1189" y1="158.473" x2="75.4733" y2="165.881" stroke="#48484A" stroke-width="7" stroke-linecap="round"/>
<line x1="105.119" y1="155.473" x2="102.473" y2="162.881" stroke="#48484A" stroke-width="7" stroke-linecap="round"/>
<line x1="96.1189" y1="176.473" x2="93.4733" y2="183.881" stroke="#48484A" stroke-width="7" stroke-linecap="round"/>
<line x1="122.119" y1="176.473" x2="119.473" y2="183.881" stroke="#48484A" stroke-width="7" stroke-linecap="round"/>
<line x1="132.119" y1="148.473" x2="129.473" y2="155.881" stroke="#48484A" stroke-width="7" stroke-linecap="round"/>
</svg>
