<svg width="200" height="200" viewBox="0 0 200 200" fill="none" xmlns="http://www.w3.org/2000/svg">
<path d="M96.0612 39.0205C95.7431 41.2472 95.7431 45.7007 96.0612 48.5636C97.0155 55.5619 92.2439 55.88 86.8362 49.5179C84.6094 46.9731 81.7465 44.7463 80.156 44.7463C74.4301 44.7463 77.6112 53.3351 86.8362 62.242C97.6517 72.4214 98.606 77.1929 91.2896 83.2369C83.9732 89.2808 76.3388 83.2369 72.2034 68.6041C67.75 52.6989 61.3879 50.1541 61.3879 64.1507C61.3879 72.4214 60.4336 73.6938 57.5706 70.8308C53.1172 66.3774 42.3017 65.7412 42.3017 70.1946C42.3017 71.7851 45.1646 74.9662 48.6637 77.1929C56.6163 82.2826 56.9344 86.0998 48.9818 86.0998C45.4827 86.0998 41.6655 87.6903 40.7111 89.2808C37.5301 94.3705 47.0732 96.2791 59.1612 93.0981C71.8853 89.5989 80.4741 93.0981 80.4741 101.687C80.4741 109.958 72.5215 112.184 57.5706 108.049C41.3474 103.914 33.3948 109.003 46.7551 115.047L55.3439 119.183L48.3456 124.59C40.0749 130.952 42.6198 138.587 51.8448 133.815C60.4336 129.362 61.3879 129.68 61.3879 138.905C61.3879 150.993 68.7043 146.858 72.5215 132.543C76.6569 118.546 84.9276 112.184 91.9258 117.91C98.606 123.636 97.3336 128.408 86.8362 138.587C81.7465 143.677 77.2931 149.721 77.2931 151.947C77.2931 157.673 86.5181 157.037 88.7448 151.311C91.6077 144.313 97.3336 145.585 95.425 152.583C94.7888 155.764 95.1069 160.218 96.3793 162.445C100.197 168.489 105.922 163.081 105.922 153.856C105.922 145.585 105.922 145.585 112.284 151.311C123.418 161.49 126.599 152.265 115.465 141.768C104.968 131.589 103.059 119.819 111.33 116.638C118.328 113.775 123.736 119.819 127.235 133.815C129.144 140.177 132.325 145.267 135.824 145.903C140.278 146.858 140.914 145.585 139.005 138.905C136.778 129.998 138.369 129.044 147.276 133.815C156.501 138.587 159.046 130.952 150.775 124.59L143.777 119.183L152.366 115.047C166.044 109.003 157.455 103.914 141.232 108.367C131.053 110.912 126.599 110.912 123.1 108.049C111.966 98.8239 123.1 88.3265 139.005 92.78C152.047 96.5972 160 96.2791 160 92.4619C160 90.5533 156.183 87.6903 151.729 86.0998L143.459 82.9188L151.093 76.8748C160.318 69.2403 156.501 64.7869 145.367 69.5584C137.733 73.3757 137.415 73.0576 138.369 64.7869C139.959 51.4265 130.734 53.3351 127.235 67.0136C124.054 80.692 117.692 87.6903 111.012 85.1455C102.741 81.9645 105.286 68.9222 115.465 59.061C121.828 53.017 124.054 48.8817 121.828 46.655C119.919 44.7463 116.738 45.7007 112.603 49.1998C106.559 54.6076 106.24 54.6076 105.286 46.0188C104.332 37.1119 96.6974 31.386 96.0612 39.0205ZM108.149 97.5515C109.103 100.096 107.513 104.868 104.65 107.731C99.8784 112.502 99.2422 112.502 94.4707 107.731C87.7905 101.051 90.9715 92.4619 99.5603 92.4619C103.059 92.4619 106.877 94.6886 108.149 97.5515Z" fill="#48484A"/>
</svg>
